<?xml version="1.0" encoding="utf-8"?>
<!-- Generator: Adobe Illustrator 22.1.0, SVG Export Plug-In . SVG Version: 6.00 Build 0)  -->
<svg version="1.0" id="Layer_1" xmlns="http://www.w3.org/2000/svg" xmlns:xlink="http://www.w3.org/1999/xlink" x="0px" y="0px"
	 viewBox="0 0 250 150" style="enable-background:new 0 0 250 150;" xml:space="preserve">
<style type="text/css">
	.st0{fill:url(#SVGID_1_);}
	.st1{opacity:0.2;}
	.st2{fill:none;stroke:#FFFFFF;stroke-linecap:round;stroke-miterlimit:10;}
	.st3{fill:#FFFFFF;}
	.st4{display:none;}
	.st5{display:inline;fill:url(#SVGID_2_);}
	.st6{display:inline;opacity:0.2;}
	.st7{display:inline;fill:none;stroke:#FFFFFF;stroke-linecap:round;stroke-miterlimit:10;}
	.st8{display:inline;}
	.st9{display:inline;fill:url(#SVGID_3_);}
	.st10{display:inline;fill:url(#SVGID_4_);}
</style>
<g>
	<linearGradient id="SVGID_1_" gradientUnits="userSpaceOnUse" x1="5.704" y1="58.1649" x2="244.1709" y2="58.1649">
		<stop  offset="0" style="stop-color:#5DE8A5"/>
		<stop  offset="1" style="stop-color:#5DACC1"/>
	</linearGradient>
	<path class="st0" d="M5.7,87.5C25,40.7,71,7.8,124.8,7.8c54,0,100.3,33.3,119.4,80.4l-49.3,20.3c-11.1-27.8-38.3-47.4-70.1-47.4
		c-31.6,0-58.6,19.4-69.9,46.9L5.7,87.5z"/>
	<path class="st1" d="M5.7,87.5L54.9,108c5.8-14.2,15.8-26.1,28.4-34.5v-0.4L54.1,29C32.6,43.1,15.6,63.5,5.7,87.5z"/>
	<line class="st2" x1="83.3" y1="73.5" x2="78.2" y2="65.7"/>
	<line class="st2" x1="168" y1="74.7" x2="173.4" y2="67.1"/>
	<line class="st2" x1="124.8" y1="61.1" x2="124.8" y2="51.8"/>
	<g>
		<circle class="st3" cx="209" cy="72.6" r="1.3"/>
		<circle class="st3" cx="202.9" cy="72.6" r="1.3"/>
		<path class="st3" d="M205.9,66c-4.8,0-8.7,3.9-8.7,8.7s3.9,8.7,8.7,8.7c4.8,0,8.7-3.9,8.7-8.7S210.8,66,205.9,66z M206,81.7
			c-3.8,0-7-3.1-7-7c0-3.8,3.1-7,7-7s7,3.1,7,7C212.9,78.6,209.8,81.7,206,81.7z M201.6,76.5c0.7,2,2.4,3.5,4.3,3.5s3.7-1.4,4.3-3.5
			H201.6z"/>
	</g>
	<g>
		<circle class="st3" cx="49" cy="71.7" r="1.3"/>
		<circle class="st3" cx="42.9" cy="71.7" r="1.3"/>
		<path class="st3" d="M45.9,65.2c-4.8,0-8.7,3.9-8.7,8.7s3.9,8.7,8.7,8.7c4.8,0,8.7-3.9,8.7-8.7S50.7,65.2,45.9,65.2z M45.9,80.8
			c-3.8,0-7-3.1-7-7s3.1-7,7-7s7,3.1,7,7S49.8,80.8,45.9,80.8z M45.9,75.6c-2,0-3.8,1.3-4.5,3h1.5c0.6-1,1.7-1.7,3-1.7
			c1.3,0,2.4,0.7,3,1.7h1.5C49.7,76.9,47.9,75.6,45.9,75.6z"/>
	</g>
	<g>
		<circle class="st3" cx="158.7" cy="35.1" r="1.3"/>
		<circle class="st3" cx="152.6" cy="35.1" r="1.3"/>
		<path class="st3" d="M155.7,28.5c-4.8,0-8.7,3.9-8.7,8.7s3.9,8.7,8.7,8.7c4.8,0,8.7-3.9,8.7-8.7S160.5,28.5,155.7,28.5z
			 M155.7,44.2c-3.8,0-7-3.1-7-7s3.1-7,7-7c3.8,0,7,3.1,7,7S159.5,44.2,155.7,44.2z M155.7,40.7c-0.6,0-1.2-0.2-1.7-0.5
			c-0.1,0.1-0.7,0.9-0.9,1c0.7,0.5,1.6,0.8,2.6,0.8c1,0,1.8-0.3,2.6-0.8c-0.8-0.9,0,0-0.9-1C156.9,40.5,156.3,40.7,155.7,40.7z"/>
	</g>
	<g>
		<circle class="st3" cx="98.1" cy="35.9" r="1.3"/>
		<circle class="st3" cx="92" cy="35.9" r="1.3"/>
		<path class="st3" d="M95,29.4c-4.8,0-8.7,3.9-8.7,8.7s3.9,8.7,8.7,8.7c4.8,0,8.7-3.9,8.7-8.7S99.8,29.4,95,29.4z M95,45.1
			c-3.8,0-7-3.1-7-7s3.1-7,7-7c3.8,0,7,3.1,7,7S98.9,45.1,95,45.1z M95,42c0.6,0,1.2,0.2,1.7,0.5c0.1-0.1,0.7-0.9,0.9-1
			C96.9,41,96,40.7,95,40.7s-1.9,0.3-2.6,0.8c0.8,0.9,0,0,0.9,1C93.8,42.2,94.4,42,95,42z"/>
	</g>
</g>
<g class="st4">
	<linearGradient id="SVGID_2_" gradientUnits="userSpaceOnUse" x1="5.704" y1="58.1649" x2="244.1709" y2="58.1649">
		<stop  offset="0" style="stop-color:#5DE8A5"/>
		<stop  offset="1" style="stop-color:#5DACC1"/>
	</linearGradient>
	<path class="st5" d="M5.7,87.5C25,40.7,71,7.8,124.8,7.8c54,0,100.3,33.3,119.4,80.4l-49.3,20.3c-11.1-27.8-38.3-47.4-70.1-47.4
		c-31.6,0-58.6,19.4-69.9,46.9L5.7,87.5z"/>
	<path class="st6" d="M53.9,29.1l29.4,44.4l0,0c11.9-7.8,26.1-12.4,41.5-12.4V7.8C98.6,7.8,74.2,15.6,53.9,29.1z"/>
	<line class="st7" x1="83.3" y1="73.5" x2="78.2" y2="65.7"/>
	<line class="st7" x1="168" y1="74.7" x2="173.4" y2="67.1"/>
	<line class="st7" x1="124.8" y1="61.1" x2="124.8" y2="51.8"/>
	<g class="st8">
		<circle class="st3" cx="209" cy="72.6" r="1.3"/>
		<circle class="st3" cx="202.9" cy="72.6" r="1.3"/>
		<path class="st3" d="M205.9,66c-4.8,0-8.7,3.9-8.7,8.7s3.9,8.7,8.7,8.7c4.8,0,8.7-3.9,8.7-8.7S210.8,66,205.9,66z M206,81.7
			c-3.8,0-7-3.1-7-7c0-3.8,3.1-7,7-7s7,3.1,7,7C212.9,78.6,209.8,81.7,206,81.7z M201.6,76.5c0.7,2,2.4,3.5,4.3,3.5s3.7-1.4,4.3-3.5
			H201.6z"/>
	</g>
	<g class="st8">
		<circle class="st3" cx="49" cy="71.7" r="1.3"/>
		<circle class="st3" cx="42.9" cy="71.7" r="1.3"/>
		<path class="st3" d="M45.9,65.2c-4.8,0-8.7,3.9-8.7,8.7s3.9,8.7,8.7,8.7c4.8,0,8.7-3.9,8.7-8.7S50.7,65.2,45.9,65.2z M45.9,80.8
			c-3.8,0-7-3.1-7-7s3.1-7,7-7s7,3.1,7,7S49.8,80.8,45.9,80.8z M45.9,75.6c-2,0-3.8,1.3-4.5,3h1.5c0.6-1,1.7-1.7,3-1.7
			c1.3,0,2.4,0.7,3,1.7h1.5C49.7,76.9,47.9,75.6,45.9,75.6z"/>
	</g>
	<g class="st8">
		<circle class="st3" cx="158.7" cy="35.1" r="1.3"/>
		<circle class="st3" cx="152.6" cy="35.1" r="1.3"/>
		<path class="st3" d="M155.7,28.5c-4.8,0-8.7,3.9-8.7,8.7s3.9,8.7,8.7,8.7c4.8,0,8.7-3.9,8.7-8.7S160.5,28.5,155.7,28.5z
			 M155.7,44.2c-3.8,0-7-3.1-7-7s3.1-7,7-7c3.8,0,7,3.1,7,7S159.5,44.2,155.7,44.2z M155.7,40.7c-0.6,0-1.2-0.2-1.7-0.5
			c-0.1,0.1-0.7,0.9-0.9,1c0.7,0.5,1.6,0.8,2.6,0.8c1,0,1.8-0.3,2.6-0.8c-0.8-0.9,0,0-0.9-1C156.9,40.5,156.3,40.7,155.7,40.7z"/>
	</g>
	<g class="st8">
		<circle class="st3" cx="98.1" cy="35.9" r="1.3"/>
		<circle class="st3" cx="92" cy="35.9" r="1.3"/>
		<path class="st3" d="M95,29.4c-4.8,0-8.7,3.9-8.7,8.7s3.9,8.7,8.7,8.7c4.8,0,8.7-3.9,8.7-8.7S99.8,29.4,95,29.4z M95,45.1
			c-3.8,0-7-3.1-7-7s3.1-7,7-7c3.8,0,7,3.1,7,7S98.9,45.1,95,45.1z M95,42c0.6,0,1.2,0.2,1.7,0.5c0.1-0.1,0.7-0.9,0.9-1
			C96.9,41,96,40.7,95,40.7s-1.9,0.3-2.6,0.8c0.8,0.9,0,0,0.9,1C93.8,42.2,94.4,42,95,42z"/>
	</g>
</g>
<g class="st4">
	<linearGradient id="SVGID_3_" gradientUnits="userSpaceOnUse" x1="5.704" y1="58.1649" x2="244.1709" y2="58.1649">
		<stop  offset="0" style="stop-color:#5DE8A5"/>
		<stop  offset="1" style="stop-color:#5DACC1"/>
	</linearGradient>
	<path class="st9" d="M5.7,87.5C25,40.7,71,7.8,124.8,7.8c54,0,100.3,33.3,119.4,80.4l-49.3,20.3c-11.1-27.8-38.3-47.4-70.1-47.4
		c-31.6,0-58.6,19.4-69.9,46.9L5.7,87.5z"/>
	<line class="st7" x1="83.3" y1="73.5" x2="78.2" y2="65.7"/>
	<path class="st6" d="M168,74.7l31-43.3c-21-14.9-46.6-23.6-74.3-23.6v53.3C140.9,61.1,155.8,66.1,168,74.7L168,74.7z"/>
	<line class="st7" x1="168" y1="74.7" x2="173.4" y2="67.1"/>
	<line class="st7" x1="124.8" y1="61.1" x2="124.8" y2="51.8"/>
	<g class="st8">
		<circle class="st3" cx="209" cy="72.6" r="1.3"/>
		<circle class="st3" cx="202.9" cy="72.6" r="1.3"/>
		<path class="st3" d="M205.9,66c-4.8,0-8.7,3.9-8.7,8.7s3.9,8.7,8.7,8.7c4.8,0,8.7-3.9,8.7-8.7S210.8,66,205.9,66z M206,81.7
			c-3.8,0-7-3.1-7-7c0-3.8,3.1-7,7-7s7,3.1,7,7C212.9,78.6,209.8,81.7,206,81.7z M201.6,76.5c0.7,2,2.4,3.5,4.3,3.5s3.7-1.4,4.3-3.5
			H201.6z"/>
	</g>
	<g class="st8">
		<circle class="st3" cx="49" cy="71.7" r="1.3"/>
		<circle class="st3" cx="42.9" cy="71.7" r="1.3"/>
		<path class="st3" d="M45.9,65.2c-4.8,0-8.7,3.9-8.7,8.7s3.9,8.7,8.7,8.7c4.8,0,8.7-3.9,8.7-8.7S50.7,65.2,45.9,65.2z M45.9,80.8
			c-3.8,0-7-3.1-7-7s3.1-7,7-7s7,3.1,7,7S49.8,80.8,45.9,80.8z M45.9,75.6c-2,0-3.8,1.3-4.5,3h1.5c0.6-1,1.7-1.7,3-1.7
			c1.3,0,2.4,0.7,3,1.7h1.5C49.7,76.9,47.9,75.6,45.9,75.6z"/>
	</g>
	<g class="st8">
		<circle class="st3" cx="158.7" cy="35.1" r="1.3"/>
		<circle class="st3" cx="152.6" cy="35.1" r="1.3"/>
		<path class="st3" d="M155.7,28.5c-4.8,0-8.7,3.9-8.7,8.7s3.9,8.7,8.7,8.7c4.8,0,8.7-3.9,8.7-8.7S160.5,28.5,155.7,28.5z
			 M155.7,44.2c-3.8,0-7-3.1-7-7s3.1-7,7-7c3.8,0,7,3.1,7,7S159.5,44.2,155.7,44.2z M155.7,40.7c-0.6,0-1.2-0.2-1.7-0.5
			c-0.1,0.1-0.7,0.9-0.9,1c0.7,0.5,1.6,0.8,2.6,0.8c1,0,1.8-0.3,2.6-0.8c-0.8-0.9,0,0-0.9-1C156.9,40.5,156.3,40.7,155.7,40.7z"/>
	</g>
	<g class="st8">
		<circle class="st3" cx="98.1" cy="35.9" r="1.3"/>
		<circle class="st3" cx="92" cy="35.9" r="1.3"/>
		<path class="st3" d="M95,29.4c-4.8,0-8.7,3.9-8.7,8.7s3.9,8.7,8.7,8.7c4.8,0,8.7-3.9,8.7-8.7S99.8,29.4,95,29.4z M95,45.1
			c-3.8,0-7-3.1-7-7s3.1-7,7-7c3.8,0,7,3.1,7,7S98.9,45.1,95,45.1z M95,42c0.6,0,1.2,0.2,1.7,0.5c0.1-0.1,0.7-0.9,0.9-1
			C96.9,41,96,40.7,95,40.7s-1.9,0.3-2.6,0.8c0.8,0.9,0,0,0.9,1C93.8,42.2,94.4,42,95,42z"/>
	</g>
</g>
<g class="st4">
	<linearGradient id="SVGID_4_" gradientUnits="userSpaceOnUse" x1="5.7039" y1="58.1649" x2="244.1709" y2="58.1649">
		<stop  offset="0" style="stop-color:#5DE8A5"/>
		<stop  offset="1" style="stop-color:#5DACC1"/>
	</linearGradient>
	<path class="st10" d="M5.7,87.5C25,40.7,71,7.8,124.8,7.8c54,0,100.3,33.3,119.4,80.4l-49.3,20.3c-11.1-27.8-38.3-47.4-70.1-47.4
		c-31.6,0-58.6,19.4-69.9,46.9L5.7,87.5z"/>
	<line class="st7" x1="83.3" y1="73.5" x2="78.2" y2="65.7"/>
	<path class="st6" d="M168,74.7c11.9,8.4,21.3,20.1,26.8,33.8l49.3-20.3c-9.3-23-25.1-42.7-45.1-56.8L168,74.7z"/>
	<line class="st7" x1="168" y1="74.7" x2="173.4" y2="67.1"/>
	<line class="st7" x1="124.8" y1="61.1" x2="124.8" y2="51.8"/>
	<g class="st8">
		<circle class="st3" cx="209" cy="72.6" r="1.3"/>
		<circle class="st3" cx="202.9" cy="72.6" r="1.3"/>
		<path class="st3" d="M205.9,66c-4.8,0-8.7,3.9-8.7,8.7s3.9,8.7,8.7,8.7c4.8,0,8.7-3.9,8.7-8.7S210.8,66,205.9,66z M206,81.7
			c-3.8,0-7-3.1-7-7c0-3.8,3.1-7,7-7c3.8,0,7,3.1,7,7C212.9,78.6,209.8,81.7,206,81.7z M201.6,76.5c0.7,2,2.4,3.5,4.3,3.5
			c2,0,3.7-1.4,4.3-3.5H201.6z"/>
	</g>
	<g class="st8">
		<circle class="st3" cx="49" cy="71.7" r="1.3"/>
		<circle class="st3" cx="42.9" cy="71.7" r="1.3"/>
		<path class="st3" d="M45.9,65.2c-4.8,0-8.7,3.9-8.7,8.7s3.9,8.7,8.7,8.7c4.8,0,8.7-3.9,8.7-8.7S50.7,65.2,45.9,65.2z M45.9,80.8
			c-3.8,0-7-3.1-7-7s3.1-7,7-7s7,3.1,7,7S49.8,80.8,45.9,80.8z M45.9,75.6c-2,0-3.8,1.3-4.5,3h1.5c0.6-1,1.7-1.7,3-1.7
			c1.3,0,2.4,0.7,3,1.7h1.5C49.7,76.9,47.9,75.6,45.9,75.6z"/>
	</g>
	<g class="st8">
		<circle class="st3" cx="158.7" cy="35.1" r="1.3"/>
		<circle class="st3" cx="152.6" cy="35.1" r="1.3"/>
		<path class="st3" d="M155.7,28.5c-4.8,0-8.7,3.9-8.7,8.7s3.9,8.7,8.7,8.7c4.8,0,8.7-3.9,8.7-8.7S160.5,28.5,155.7,28.5z
			 M155.7,44.2c-3.8,0-7-3.1-7-7s3.1-7,7-7s7,3.1,7,7S159.5,44.2,155.7,44.2z M155.7,40.7c-0.6,0-1.2-0.2-1.7-0.5
			c-0.1,0.1-0.7,0.9-0.9,1c0.7,0.5,1.6,0.8,2.6,0.8c1,0,1.8-0.3,2.6-0.8c-0.8-0.9,0,0-0.9-1C156.9,40.5,156.3,40.7,155.7,40.7z"/>
	</g>
	<g class="st8">
		<circle class="st3" cx="98.1" cy="35.9" r="1.3"/>
		<circle class="st3" cx="92" cy="35.9" r="1.3"/>
		<path class="st3" d="M95,29.4c-4.8,0-8.7,3.9-8.7,8.7s3.9,8.7,8.7,8.7c4.8,0,8.7-3.9,8.7-8.7S99.8,29.4,95,29.4z M95,45.1
			c-3.8,0-7-3.1-7-7s3.1-7,7-7c3.8,0,7,3.1,7,7S98.9,45.1,95,45.1z M95,42c0.6,0,1.2,0.2,1.7,0.5c0.1-0.1,0.7-0.9,0.9-1
			C96.9,41,96,40.7,95,40.7s-1.9,0.3-2.6,0.8c0.8,0.9,0,0,0.9,1C93.8,42.2,94.4,42,95,42z"/>
	</g>
</g>
</svg>
